<svg width="235" height="73" viewBox="0 0 235 73" fill="none" xmlns="http://www.w3.org/2000/svg">
<path d="M0.4 28L11.44 0.559998H14.56L25.6 28H23.28L20.08 20.08H5.76L2.6 28H0.4ZM6.56 18.16H19.28L15.28 8.2C15.2 7.98667 15.08 7.66667 14.92 7.24C14.76 6.81333 14.5733 6.32 14.36 5.76C14.1467 5.2 13.92 4.62667 13.68 4.04C13.4667 3.45333 13.2667 2.90666 13.08 2.4H12.76C12.5733 2.90666 12.3467 3.50666 12.08 4.2C11.8133 4.89333 11.5467 5.6 11.28 6.32C11.0133 7.01333 10.7733 7.64 10.56 8.2L6.56 18.16ZM29.9356 28V0.559998H32.1356L47.2956 20.84C47.4556 21.0267 47.6556 21.2933 47.8956 21.64C48.1356 21.9867 48.389 22.3467 48.6556 22.72C48.9223 23.0933 49.1623 23.4267 49.3756 23.72H49.5356C49.5356 23.24 49.5356 22.76 49.5356 22.28C49.5356 21.8 49.5356 21.32 49.5356 20.84V0.559998H51.6956V28H49.9756L34.4556 7.16C34.269 6.92 33.949 6.49333 33.4956 5.88C33.0423 5.26667 32.629 4.70667 32.2556 4.2H32.0956C32.0956 4.70667 32.0956 5.2 32.0956 5.68C32.0956 6.16 32.0956 6.65333 32.0956 7.16V28H29.9356ZM67.105 28V16.36L56.025 0.559998H58.425L68.145 14.48H68.305L77.985 0.559998H80.425L69.305 16.36V28H67.105ZM78.4078 28L89.4478 0.559998H92.5678L103.608 28H101.288L98.0878 20.08H83.7678L80.6078 28H78.4078ZM84.5678 18.16H97.2878L93.2878 8.2C93.2078 7.98667 93.0878 7.66667 92.9278 7.24C92.7678 6.81333 92.5811 6.32 92.3678 5.76C92.1545 5.2 91.9278 4.62667 91.6878 4.04C91.4745 3.45333 91.2745 2.90666 91.0878 2.4H90.7678C90.5811 2.90666 90.3545 3.50666 90.0878 4.2C89.8211 4.89333 89.5545 5.6 89.2878 6.32C89.0211 7.01333 88.7811 7.64 88.5678 8.2L84.5678 18.16ZM3.92 72V44.56H13.28C16.2667 44.56 18.8 45.0267 20.88 45.96C22.96 46.8933 24.5467 48.3733 25.64 50.4C26.7333 52.4 27.28 55.0267 27.28 58.28C27.28 61.48 26.7333 64.0933 25.64 66.12C24.5467 68.1467 22.96 69.64 20.88 70.6C18.8 71.5333 16.2667 72 13.28 72H3.92ZM6.08 70.08H13.12C14.9067 70.08 16.52 69.8933 17.96 69.52C19.4267 69.12 20.68 68.48 21.72 67.6C22.7867 66.72 23.6 65.56 24.16 64.12C24.72 62.6533 25 60.8667 25 58.76V57.96C25 55.7733 24.72 53.9467 24.16 52.48C23.6 51.0133 22.8 49.84 21.76 48.96C20.72 48.08 19.4667 47.4533 18 47.08C16.56 46.68 14.9333 46.48 13.12 46.48H6.08V70.08ZM45.5284 72.48C42.7018 72.48 40.2751 71.9467 38.2484 70.88C36.2484 69.8133 34.7018 68.2267 33.6084 66.12C32.5418 64.0133 32.0084 61.4 32.0084 58.28C32.0084 55.1333 32.5418 52.52 33.6084 50.44C34.7018 48.3333 36.2484 46.7467 38.2484 45.68C40.2751 44.6133 42.7018 44.08 45.5284 44.08C48.3818 44.08 50.8084 44.6133 52.8084 45.68C54.8351 46.7467 56.3818 48.3333 57.4484 50.44C58.5418 52.52 59.0884 55.1333 59.0884 58.28C59.0884 61.4 58.5418 64.0133 57.4484 66.12C56.3818 68.2267 54.8351 69.8133 52.8084 70.88C50.8084 71.9467 48.3818 72.48 45.5284 72.48ZM45.5284 70.56C47.1818 70.56 48.7018 70.3467 50.0884 69.92C51.4751 69.4933 52.6618 68.8133 53.6484 67.88C54.6618 66.92 55.4351 65.6933 55.9684 64.2C56.5284 62.68 56.8084 60.84 56.8084 58.68V57.88C56.8084 55.72 56.5284 53.8933 55.9684 52.4C55.4351 50.88 54.6618 49.6533 53.6484 48.72C52.6618 47.76 51.4751 47.0667 50.0884 46.64C48.7018 46.2133 47.1818 46 45.5284 46C43.8751 46 42.3551 46.2133 40.9684 46.64C39.6084 47.0667 38.4218 47.76 37.4084 48.72C36.4218 49.6533 35.6484 50.88 35.0884 52.4C34.5551 53.8933 34.2884 55.72 34.2884 57.88V58.68C34.2884 60.84 34.5551 62.68 35.0884 64.2C35.6484 65.6933 36.4218 66.92 37.4084 67.88C38.4218 68.8133 39.6084 69.4933 40.9684 69.92C42.3551 70.3467 43.8751 70.56 45.5284 70.56ZM65.3653 72V44.56H79.7653C81.472 44.56 82.8853 44.8933 84.0053 45.56C85.1253 46.2267 85.9653 47.12 86.5253 48.24C87.0853 49.36 87.3653 50.6267 87.3653 52.04C87.3653 54.04 86.8986 55.72 85.9653 57.08C85.032 58.4133 83.8586 59.32 82.4453 59.8L88.3253 72H85.9253L80.2453 60.2H67.5253V72H65.3653ZM67.5253 58.28H79.4453C81.232 58.28 82.632 57.72 83.6453 56.6C84.6853 55.48 85.2053 53.9467 85.2053 52C85.2053 50.8533 84.992 49.88 84.5653 49.08C84.1386 48.2533 83.4986 47.6133 82.6453 47.16C81.792 46.7067 80.7253 46.48 79.4453 46.48H67.5253V58.28ZM105.88 72.48C103.053 72.48 100.627 71.9467 98.6 70.88C96.6 69.8133 95.0533 68.2267 93.96 66.12C92.8933 64.0133 92.36 61.4 92.36 58.28C92.36 55.1333 92.8933 52.52 93.96 50.44C95.0533 48.3333 96.6 46.7467 98.6 45.68C100.627 44.6133 103.053 44.08 105.88 44.08C108.733 44.08 111.16 44.6133 113.16 45.68C115.187 46.7467 116.733 48.3333 117.8 50.44C118.893 52.52 119.44 55.1333 119.44 58.28C119.44 61.4 118.893 64.0133 117.8 66.12C116.733 68.2267 115.187 69.8133 113.16 70.88C111.16 71.9467 108.733 72.48 105.88 72.48ZM105.88 70.56C107.533 70.56 109.053 70.3467 110.44 69.92C111.827 69.4933 113.013 68.8133 114 67.88C115.013 66.92 115.787 65.6933 116.32 64.2C116.88 62.68 117.16 60.84 117.16 58.68V57.88C117.16 55.72 116.88 53.8933 116.32 52.4C115.787 50.88 115.013 49.6533 114 48.72C113.013 47.76 111.827 47.0667 110.44 46.64C109.053 46.2133 107.533 46 105.88 46C104.227 46 102.707 46.2133 101.32 46.64C99.96 47.0667 98.7733 47.76 97.76 48.72C96.7733 49.6533 96 50.88 95.44 52.4C94.9067 53.8933 94.64 55.72 94.64 57.88V58.68C94.64 60.84 94.9067 62.68 95.44 64.2C96 65.6933 96.7733 66.92 97.76 67.88C98.7733 68.8133 99.96 69.4933 101.32 69.92C102.707 70.3467 104.227 70.56 105.88 70.56ZM137.917 72.48C133.277 72.48 129.824 71.3067 127.557 68.96C125.29 66.5867 124.157 63.0267 124.157 58.28C124.157 55.2133 124.664 52.6267 125.677 50.52C126.717 48.4133 128.264 46.8133 130.317 45.72C132.37 44.6267 134.944 44.08 138.037 44.08C139.984 44.08 141.704 44.2933 143.197 44.72C144.69 45.12 145.944 45.7333 146.957 46.56C147.997 47.36 148.77 48.3733 149.277 49.6C149.81 50.8267 150.077 52.2667 150.077 53.92H147.957C147.957 52.4 147.704 51.1333 147.197 50.12C146.717 49.1067 146.024 48.2933 145.117 47.68C144.237 47.0667 143.184 46.64 141.957 46.4C140.73 46.1333 139.397 46 137.957 46C136.224 46 134.65 46.2133 133.237 46.64C131.824 47.0667 130.61 47.76 129.597 48.72C128.584 49.6533 127.797 50.88 127.237 52.4C126.704 53.8933 126.437 55.72 126.437 57.88V58.72C126.437 61.6 126.89 63.9067 127.797 65.64C128.73 67.3733 130.037 68.6267 131.717 69.4C133.397 70.1733 135.37 70.56 137.637 70.56C140.25 70.56 142.304 70.2133 143.797 69.52C145.29 68.8267 146.344 67.7467 146.957 66.28C147.597 64.7867 147.917 62.8933 147.917 60.6V59.84H137.157V57.92H150.117V72H148.277L147.917 68.04C147.304 69.1067 146.45 69.9733 145.357 70.64C144.264 71.28 143.064 71.7467 141.757 72.04C140.477 72.3333 139.197 72.48 137.917 72.48ZM169.591 72.48C166.764 72.48 164.338 71.9467 162.311 70.88C160.311 69.8133 158.764 68.2267 157.671 66.12C156.604 64.0133 156.071 61.4 156.071 58.28C156.071 55.1333 156.604 52.52 157.671 50.44C158.764 48.3333 160.311 46.7467 162.311 45.68C164.338 44.6133 166.764 44.08 169.591 44.08C172.444 44.08 174.871 44.6133 176.871 45.68C178.898 46.7467 180.444 48.3333 181.511 50.44C182.604 52.52 183.151 55.1333 183.151 58.28C183.151 61.4 182.604 64.0133 181.511 66.12C180.444 68.2267 178.898 69.8133 176.871 70.88C174.871 71.9467 172.444 72.48 169.591 72.48ZM169.591 70.56C171.244 70.56 172.764 70.3467 174.151 69.92C175.538 69.4933 176.724 68.8133 177.711 67.88C178.724 66.92 179.498 65.6933 180.031 64.2C180.591 62.68 180.871 60.84 180.871 58.68V57.88C180.871 55.72 180.591 53.8933 180.031 52.4C179.498 50.88 178.724 49.6533 177.711 48.72C176.724 47.76 175.538 47.0667 174.151 46.64C172.764 46.2133 171.244 46 169.591 46C167.938 46 166.418 46.2133 165.031 46.64C163.671 47.0667 162.484 47.76 161.471 48.72C160.484 49.6533 159.711 50.88 159.151 52.4C158.618 53.8933 158.351 55.72 158.351 57.88V58.68C158.351 60.84 158.618 62.68 159.151 64.2C159.711 65.6933 160.484 66.92 161.471 67.88C162.484 68.8133 163.671 69.4933 165.031 69.92C166.418 70.3467 167.938 70.56 169.591 70.56ZM196.077 72L185.517 44.56H187.837L195.517 64.64C195.731 65.1467 195.944 65.72 196.157 66.36C196.397 67 196.624 67.64 196.837 68.28C197.077 68.8933 197.277 69.44 197.437 69.92H197.717C197.904 69.44 198.104 68.8933 198.317 68.28C198.531 67.64 198.757 67 198.997 66.36C199.237 65.72 199.451 65.1467 199.637 64.64L207.197 44.56H209.517L198.957 72H196.077ZM209.541 72L220.581 44.56H223.701L234.741 72H232.421L229.221 64.08H214.901L211.741 72H209.541ZM215.701 62.16H228.421L224.421 52.2C224.341 51.9867 224.221 51.6667 224.061 51.24C223.901 50.8133 223.714 50.32 223.501 49.76C223.287 49.2 223.061 48.6267 222.821 48.04C222.607 47.4533 222.407 46.9067 222.221 46.4H221.901C221.714 46.9067 221.487 47.5067 221.221 48.2C220.954 48.8933 220.687 49.6 220.421 50.32C220.154 51.0133 219.914 51.64 219.701 52.2L215.701 62.16Z" fill="#FF5EBE"/>
</svg>
