<svg width="102" height="166" viewBox="0 0 102 166" fill="none" xmlns="http://www.w3.org/2000/svg">
<path d="M40.8393 27.4859C38.1309 27.4859 35.4833 26.6799 33.2313 25.1698C30.9794 23.6597 29.2242 21.5133 28.1877 19.0021C27.1513 16.491 26.8801 13.7277 27.4085 11.0618C27.9368 8.39596 29.2411 5.94721 31.1562 4.02522C33.0713 2.10324 35.5114 0.794347 38.1677 0.264074C40.8241 -0.266202 43.5775 0.00595574 46.0798 1.04612C48.582 2.0863 50.7207 3.84776 52.2254 6.10778C52.9414 7.18321 53.4986 8.34854 53.8859 9.56757C54.5954 11.8003 52.6341 13.7429 50.2913 13.7429H45.0813C42.7385 13.7429 40.8393 15.6421 40.8393 17.9849L40.8393 24.0691C40.8393 24.0691 40.9118 25.1652 41.3748 25.6282C41.5669 25.8203 41.8734 25.9443 42.1664 26.0236C44.4061 26.2424 46.5649 27.0127 48.4473 28.275C50.6992 29.7851 52.4544 31.9315 53.4909 34.4426C54.5273 36.9538 54.7985 39.7171 54.2701 42.383C53.7418 45.0488 52.4375 47.4976 50.5224 49.4196C48.6073 51.3416 46.1672 52.6504 43.5109 53.1807C40.8545 53.711 38.1011 53.4388 35.5988 52.3987C33.0966 51.3585 30.9579 49.597 29.4532 47.337C29.4112 47.274 29.3698 47.2106 29.3289 47.1469C28.732 46.4138 27.4917 46.7278 27.3627 47.7168V59.2374C27.3627 61.5802 29.2619 63.4793 31.6047 63.4793H50.9193V63.4733C61.0221 63.4733 70.898 66.4798 79.2982 72.1127C87.6984 77.7456 94.2455 85.7518 98.1117 95.119C101.978 104.486 102.989 114.793 101.018 124.738C99.0475 134.682 94.1826 143.816 87.0388 150.985C79.895 158.155 70.7933 163.037 60.8846 165.015C50.976 166.993 40.7053 165.978 31.3716 162.098C22.0378 158.218 14.0601 151.647 8.44728 143.217C3.61947 135.966 0.72781 127.619 0.0133959 118.974C-0.179547 116.639 1.73784 114.737 4.08062 114.737H46.6773C49.0201 114.737 50.9193 112.837 50.9193 110.495V74.4099L50.883 74.1806C50.7028 73.0387 49.1493 72.8276 48.6709 73.8799L48.6715 73.874C48.2015 74.8444 47.6645 75.7853 47.0625 76.6894C44.4591 80.5996 40.7588 83.6472 36.4295 85.4468C32.1002 87.2465 27.3364 87.7174 22.7405 86.7999C18.1445 85.8825 13.9229 83.6179 10.6094 80.2925C7.29591 76.9672 5.0394 72.7305 4.12521 68.1181C3.21102 63.5057 3.68022 58.7248 5.47346 54.3801C7.26671 50.0353 10.3035 46.3218 14.1997 43.7091C18.0357 41.1368 22.5352 39.7453 27.1453 39.7028V39.7018H36.5973C38.9401 39.7018 40.8393 37.8027 40.8393 35.4599V27.4859Z" fill="#2A76E9"/>
</svg>
