<svg width="354" height="67" viewBox="0 0 354 67" fill="none" xmlns="http://www.w3.org/2000/svg">
<path d="M0 57.902L11.0559 28.0954H22.3762L33.4321 57.902H23.125L21.8476 53.6996H11.2321L9.95475 57.902H0ZM13.2583 47.0278H19.8655L18.4119 42.2622C18.2944 41.9156 18.1623 41.4968 18.0155 41.0058C17.8686 40.5148 17.7218 39.9949 17.575 39.4462C17.4282 38.8974 17.2813 38.3631 17.1345 37.8432C16.9877 37.2944 16.8555 36.8179 16.7381 36.4135H16.3857C16.2682 36.9334 16.1067 37.5255 15.9012 38.1898C15.725 38.8541 15.5341 39.5473 15.3286 40.2693C15.123 40.9625 14.9174 41.6268 14.7119 42.2622L13.2583 47.0278Z" fill="#FF5EBE"/>
<path d="M36.4855 57.902V35.0272H43.6652L44.2379 38.493H44.5462C45.1629 37.5977 45.8823 36.8612 46.7045 36.2835C47.5268 35.677 48.4371 35.2293 49.4355 34.9405C50.4339 34.6517 51.4617 34.5073 52.5188 34.5073C54.3688 34.5073 55.8811 34.8539 57.0557 35.547C58.2597 36.2113 59.1553 37.1789 59.7426 38.4497C60.3299 39.7205 60.6236 41.2658 60.6236 43.0854V57.902H51.8581V44.1251C51.8581 43.6341 51.7847 43.2009 51.6379 42.8254C51.5204 42.4211 51.3442 42.0745 51.1093 41.7856C50.8744 41.4968 50.566 41.2802 50.1843 41.1358C49.8319 40.9625 49.4061 40.8758 48.9069 40.8758C48.1728 40.8758 47.5268 41.0491 46.9688 41.3957C46.4402 41.7134 46.0145 42.1467 45.6914 42.6954C45.3978 43.2153 45.251 43.8074 45.251 44.4717V57.902H36.4855Z" fill="#FF5EBE"/>
<path d="M70.0934 67C69.0363 67 68.0673 66.9133 67.1863 66.7401C66.3054 66.5956 65.5859 66.4223 65.028 66.2202V61.0647H68.5518C69.5796 61.0647 70.3577 60.8769 70.8863 60.5015C71.4442 60.126 71.826 59.6927 72.0315 59.2017C72.2665 58.7107 72.4133 58.2775 72.472 57.902L63.222 35.0272H72.6482L75.3792 44.2984C75.526 44.7316 75.7022 45.3093 75.9077 46.0314C76.1133 46.7534 76.3188 47.4899 76.5244 48.2409C76.7593 48.9918 76.9502 49.6561 77.097 50.2338H77.4053C77.5228 49.8294 77.6403 49.3673 77.7577 48.8474C77.9045 48.3275 78.0514 47.7932 78.1982 47.2444C78.345 46.6668 78.4918 46.1324 78.6387 45.6414C78.7855 45.1504 78.903 44.7172 78.9911 44.3417L81.5018 35.0272H90.1351L81.8541 57.2089C81.3256 58.6241 80.7236 59.9238 80.0482 61.108C79.4022 62.321 78.624 63.3608 77.7137 64.2273C76.8327 65.1226 75.7609 65.8014 74.4982 66.2635C73.2649 66.7545 71.7966 67 70.0934 67Z" fill="#FF5EBE"/>
<path d="M99.4487 58.4219C98.2448 58.4219 97.1436 58.3064 96.1452 58.0753C95.1468 57.8731 94.2805 57.5266 93.5464 57.0356C92.8122 56.5157 92.2396 55.8514 91.8285 55.0427C91.4468 54.2051 91.2559 53.1942 91.2559 52.01C91.2559 50.306 91.6083 48.9196 92.313 47.8509C93.0472 46.7823 94.1043 45.9592 95.4845 45.3815C96.8646 44.8039 98.5384 44.4139 100.506 44.2118C102.503 43.9807 104.778 43.8652 107.333 43.8652V42.7388C107.333 42.1033 107.172 41.5979 106.849 41.2224C106.555 40.8181 106.159 40.5148 105.659 40.3126C105.16 40.1105 104.588 40.0094 103.942 40.0094C103.442 40.0094 102.928 40.0671 102.4 40.1827C101.871 40.2982 101.431 40.5004 101.078 40.7892C100.755 41.078 100.594 41.4824 100.594 42.0023V42.1756H91.9606C91.9313 42.06 91.9166 41.9589 91.9166 41.8723C91.9166 41.7856 91.9166 41.6846 91.9166 41.569C91.9166 40.1538 92.3718 38.9263 93.2821 37.8865C94.2218 36.8179 95.5872 35.9947 97.3785 35.4171C99.1991 34.8105 101.431 34.5073 104.074 34.5073C106.217 34.5073 108.2 34.7383 110.02 35.2004C111.841 35.6626 113.309 36.4424 114.425 37.5399C115.541 38.6086 116.099 40.0816 116.099 41.9589V50.8836C116.099 51.3457 116.216 51.7501 116.451 52.0967C116.686 52.4144 117.038 52.5732 117.508 52.5732H119.094V57.5554C118.742 57.7576 118.154 57.9454 117.332 58.1187C116.539 58.3208 115.6 58.4219 114.513 58.4219C113.338 58.4219 112.311 58.3064 111.43 58.0753C110.549 57.8443 109.829 57.5121 109.271 57.0789C108.743 56.6456 108.376 56.1402 108.17 55.5626H107.862C107.245 56.1113 106.526 56.6023 105.703 57.0356C104.911 57.4688 104 57.8009 102.973 58.032C101.945 58.2919 100.77 58.4219 99.4487 58.4219ZM103.017 53.0498C103.575 53.0498 104.103 52.9776 104.602 52.8332C105.131 52.6599 105.601 52.4433 106.012 52.1833C106.423 51.8945 106.746 51.5623 106.981 51.1869C107.216 50.7825 107.333 50.3493 107.333 49.8872V47.9376C105.601 47.9376 104.191 48.0676 103.105 48.3275C102.048 48.5875 101.269 48.934 100.77 49.3673C100.271 49.8005 100.021 50.306 100.021 50.8836C100.021 51.4613 100.168 51.9089 100.462 52.2266C100.755 52.5443 101.123 52.761 101.563 52.8765C102.033 52.992 102.517 53.0498 103.017 53.0498Z" fill="#FF5EBE"/>
<path d="M130.488 57.902V28.0954H143.614C147.079 28.0954 149.987 28.6297 152.336 29.6984C154.685 30.767 156.462 32.3989 157.666 34.5939C158.899 36.789 159.516 39.5906 159.516 42.9987C159.516 46.378 158.899 49.1795 157.666 51.4035C156.462 53.5986 154.685 55.2304 152.336 56.2991C149.987 57.3677 147.079 57.902 143.614 57.902H130.488ZM140.223 50.7536H143.438C144.495 50.7536 145.406 50.6092 146.169 50.3204C146.962 50.0316 147.608 49.6128 148.107 49.064C148.606 48.5152 148.973 47.8365 149.208 47.0278C149.443 46.2191 149.561 45.3093 149.561 44.2984V41.699C149.561 40.6881 149.443 39.7783 149.208 38.9696C148.973 38.1609 148.606 37.4822 148.107 36.9334C147.608 36.3846 146.962 35.9658 146.169 35.677C145.406 35.3882 144.495 35.2438 143.438 35.2438H140.223V50.7536Z" fill="#FF5EBE"/>
<path d="M176.18 58.4219C173.537 58.4219 171.232 57.9887 169.264 57.1222C167.326 56.2269 165.814 54.8983 164.727 53.1364C163.641 51.3457 163.097 49.1218 163.097 46.4646C163.097 43.7785 163.641 41.5546 164.727 39.7928C165.814 38.0309 167.326 36.7168 169.264 35.8503C171.232 34.955 173.537 34.5073 176.18 34.5073C178.822 34.5073 181.128 34.955 183.095 35.8503C185.063 36.7168 186.59 38.0309 187.676 39.7928C188.763 41.5546 189.306 43.7785 189.306 46.4646C189.306 49.1218 188.763 51.3457 187.676 53.1364C186.59 54.8983 185.063 56.2269 183.095 57.1222C181.128 57.9887 178.822 58.4219 176.18 58.4219ZM176.18 52.5732C177.207 52.5732 178.044 52.3855 178.69 52.01C179.336 51.6057 179.806 51.0425 180.1 50.3204C180.394 49.5983 180.54 48.7319 180.54 47.721V45.2515C180.54 44.2407 180.394 43.3742 180.1 42.6521C179.806 41.9012 179.336 41.338 178.69 40.9625C178.044 40.5581 177.207 40.356 176.18 40.356C175.152 40.356 174.315 40.5581 173.669 40.9625C173.052 41.338 172.597 41.9012 172.303 42.6521C172.01 43.3742 171.863 44.2407 171.863 45.2515V47.721C171.863 48.7319 172.01 49.5983 172.303 50.3204C172.597 51.0425 173.052 51.6057 173.669 52.01C174.315 52.3855 175.152 52.5732 176.18 52.5732Z" fill="#FF5EBE"/>
<path d="M193.534 57.902V35.0272H200.714L201.286 38.493H201.595C201.976 37.6266 202.461 36.8901 203.048 36.2835C203.665 35.677 204.37 35.2293 205.163 34.9405C205.955 34.6228 206.792 34.464 207.673 34.464C208.261 34.464 208.789 34.5217 209.259 34.6372C209.729 34.7528 210.067 34.8683 210.272 34.9838V42.2189H207.453C206.513 42.2189 205.706 42.3489 205.03 42.6088C204.384 42.8399 203.856 43.2009 203.445 43.6919C203.063 44.154 202.769 44.7317 202.564 45.4248C202.388 46.0891 202.299 46.8545 202.299 47.721V57.902H193.534Z" fill="#FF5EBE"/>
<path d="M224.701 58.4219C222.058 58.4219 219.753 57.9887 217.785 57.1222C215.847 56.2269 214.335 54.8983 213.248 53.1364C212.162 51.3457 211.619 49.1218 211.619 46.4646C211.619 43.7785 212.162 41.5546 213.248 39.7928C214.335 38.0309 215.847 36.7168 217.785 35.8503C219.753 34.955 222.058 34.5073 224.701 34.5073C227.344 34.5073 229.649 34.955 231.616 35.8503C233.584 36.7168 235.111 38.0309 236.197 39.7928C237.284 41.5546 237.827 43.7785 237.827 46.4646C237.827 49.1218 237.284 51.3457 236.197 53.1364C235.111 54.8983 233.584 56.2269 231.616 57.1222C229.649 57.9887 227.344 58.4219 224.701 58.4219ZM224.701 52.5732C225.729 52.5732 226.565 52.3855 227.211 52.01C227.858 51.6057 228.327 51.0425 228.621 50.3204C228.915 49.5983 229.061 48.7319 229.061 47.721V45.2515C229.061 44.2407 228.915 43.3742 228.621 42.6521C228.327 41.9012 227.858 41.338 227.211 40.9625C226.565 40.5581 225.729 40.356 224.701 40.356C223.673 40.356 222.836 40.5581 222.19 40.9625C221.573 41.338 221.118 41.9012 220.825 42.6521C220.531 43.3742 220.384 44.2407 220.384 45.2515V47.721C220.384 48.7319 220.531 49.5983 220.825 50.3204C221.118 51.0425 221.573 51.6057 222.19 52.01C222.836 52.3855 223.673 52.5732 224.701 52.5732Z" fill="#FF5EBE"/>
<path d="M245.711 67C244.654 67 243.67 66.7545 242.76 66.2635C241.879 65.7725 241.174 65.0938 240.646 64.2273C240.117 63.3897 239.853 62.451 239.853 61.4113C239.853 60.2271 240.22 59.1873 240.954 58.2919C241.717 57.3966 242.584 56.7323 243.553 56.2991C242.848 55.8081 242.29 55.216 241.879 54.5228C241.468 53.8296 241.262 53.0787 241.262 52.27C241.262 51.1147 241.688 50.0893 242.54 49.194C243.421 48.2697 244.478 47.6632 245.711 47.3744C244.654 46.7101 243.758 45.9158 243.024 44.9916C242.319 44.0385 241.967 43.0131 241.967 41.9156C241.967 40.0094 242.51 38.5219 243.597 37.4533C244.683 36.3846 246.137 35.6337 247.958 35.2004C249.778 34.7383 251.775 34.5073 253.948 34.5073C254.829 34.5073 255.563 34.5362 256.15 34.5939C256.767 34.6228 257.31 34.6806 257.78 34.7672C259.072 33.9874 259.968 33.222 260.467 32.4711C260.966 31.7201 261.216 31.1425 261.216 30.7381H268.44C268.44 31.9801 268.219 33.0054 267.779 33.8141C267.368 34.6228 266.751 35.2727 265.929 35.7637C265.136 36.2547 264.182 36.6446 263.066 36.9334C263.917 37.5688 264.578 38.3198 265.048 39.1862C265.547 40.0238 265.797 40.9192 265.797 41.8723C265.797 43.5764 265.342 44.9771 264.431 46.0747C263.521 47.1433 262.317 47.9376 260.819 48.4575C259.351 48.9774 257.751 49.2373 256.018 49.2373H252.671C251.672 49.2373 250.953 49.3528 250.512 49.5839C250.101 49.815 249.896 50.1182 249.896 50.4937C249.896 50.8692 250.072 51.1869 250.424 51.4468C250.806 51.7067 251.555 51.8367 252.671 51.8367H260.599C263.301 51.8367 265.283 52.5299 266.546 53.9163C267.808 55.2737 268.44 57.0211 268.44 59.1584C268.44 60.7758 267.984 62.1622 267.074 63.3175C266.164 64.5017 264.96 65.4115 263.462 66.0469C261.994 66.6823 260.394 67 258.661 67H245.711ZM250.468 62.1911H257.34C257.78 62.1911 258.177 62.1044 258.529 61.9311C258.881 61.7578 259.16 61.4979 259.366 61.1513C259.571 60.8336 259.674 60.4581 259.674 60.0249C259.674 59.3606 259.439 58.8407 258.969 58.4652C258.529 58.0898 257.986 57.902 257.34 57.902H250.468C249.822 57.902 249.279 58.0753 248.838 58.4219C248.398 58.7974 248.178 59.3173 248.178 59.9816C248.178 60.6459 248.398 61.1802 248.838 61.5845C249.279 61.9889 249.822 62.1911 250.468 62.1911ZM253.86 44.7317C254.888 44.7317 255.71 44.5006 256.327 44.0385C256.943 43.5764 257.252 42.8543 257.252 41.8723C257.252 40.8903 256.943 40.1682 256.327 39.7061C255.71 39.244 254.888 39.0129 253.86 39.0129C252.95 39.0129 252.171 39.244 251.525 39.7061C250.879 40.1682 250.556 40.8903 250.556 41.8723C250.556 42.5077 250.688 43.042 250.953 43.4753C251.217 43.9085 251.599 44.2262 252.098 44.4284C252.597 44.6306 253.185 44.7317 253.86 44.7317Z" fill="#FF5EBE"/>
<path d="M283.417 58.4219C280.774 58.4219 278.469 57.9887 276.501 57.1222C274.563 56.2269 273.051 54.8983 271.964 53.1364C270.878 51.3457 270.334 49.1218 270.334 46.4646C270.334 43.7785 270.878 41.5546 271.964 39.7928C273.051 38.0309 274.563 36.7168 276.501 35.8503C278.469 34.955 280.774 34.5073 283.417 34.5073C286.059 34.5073 288.365 34.955 290.332 35.8503C292.299 36.7168 293.826 38.0309 294.913 39.7928C295.999 41.5546 296.543 43.7785 296.543 46.4646C296.543 49.1218 295.999 51.3457 294.913 53.1364C293.826 54.8983 292.299 56.2269 290.332 57.1222C288.365 57.9887 286.059 58.4219 283.417 58.4219ZM283.417 52.5732C284.444 52.5732 285.281 52.3855 285.927 52.01C286.573 51.6057 287.043 51.0425 287.337 50.3204C287.63 49.5983 287.777 48.7319 287.777 47.721V45.2515C287.777 44.2407 287.63 43.3742 287.337 42.6521C287.043 41.9012 286.573 41.338 285.927 40.9625C285.281 40.5581 284.444 40.356 283.417 40.356C282.389 40.356 281.552 40.5581 280.906 40.9625C280.289 41.338 279.834 41.9012 279.54 42.6521C279.247 43.3742 279.1 44.2407 279.1 45.2515V47.721C279.1 48.7319 279.247 49.5983 279.54 50.3204C279.834 51.0425 280.289 51.6057 280.906 52.01C281.552 52.3855 282.389 52.5732 283.417 52.5732Z" fill="#FF5EBE"/>
<path d="M306.938 57.902L298.128 35.0272H307.554L309.801 42.4355C309.948 42.8399 310.124 43.4464 310.329 44.2551C310.564 45.0638 310.814 45.9158 311.078 46.8112C311.372 47.7065 311.621 48.5297 311.827 49.2806H312.135C312.341 48.5875 312.576 47.8076 312.84 46.9412C313.104 46.0458 313.354 45.1938 313.589 44.3851C313.824 43.5764 314.015 42.9265 314.161 42.4355L316.408 35.0272H325.041L316.143 57.902H306.938Z" fill="#FF5EBE"/>
<path d="M334.355 58.4219C333.151 58.4219 332.05 58.3064 331.051 58.0753C330.053 57.8731 329.187 57.5266 328.452 57.0356C327.718 56.5157 327.146 55.8514 326.735 55.0427C326.353 54.2051 326.162 53.1942 326.162 52.01C326.162 50.306 326.514 48.9196 327.219 47.8509C327.953 46.7823 329.01 45.9592 330.391 45.3815C331.771 44.8039 333.444 44.4139 335.412 44.2118C337.409 43.9807 339.684 43.8652 342.239 43.8652V42.7388C342.239 42.1033 342.078 41.5979 341.755 41.2224C341.461 40.8181 341.065 40.5148 340.565 40.3126C340.066 40.1105 339.494 40.0094 338.848 40.0094C338.348 40.0094 337.835 40.0671 337.306 40.1827C336.777 40.2982 336.337 40.5004 335.985 40.7892C335.662 41.078 335.5 41.4824 335.5 42.0023V42.1756H326.867C326.837 42.06 326.823 41.9589 326.823 41.8723C326.823 41.7856 326.823 41.6846 326.823 41.569C326.823 40.1538 327.278 38.9263 328.188 37.8865C329.128 36.8179 330.493 35.9947 332.285 35.4171C334.105 34.8105 336.337 34.5073 338.98 34.5073C341.123 34.5073 343.106 34.7383 344.926 35.2004C346.747 35.6626 348.215 36.4424 349.331 37.5399C350.447 38.6086 351.005 40.0816 351.005 41.9589V50.8836C351.005 51.3457 351.122 51.7501 351.357 52.0967C351.592 52.4144 351.944 52.5732 352.414 52.5732H354V57.5554C353.648 57.7576 353.06 57.9454 352.238 58.1187C351.445 58.3208 350.506 58.4219 349.419 58.4219C348.244 58.4219 347.217 58.3064 346.336 58.0753C345.455 57.8443 344.735 57.5121 344.177 57.0789C343.649 56.6456 343.282 56.1402 343.076 55.5626H342.768C342.151 56.1113 341.432 56.6023 340.61 57.0356C339.817 57.4688 338.906 57.8009 337.879 58.032C336.851 58.2919 335.676 58.4219 334.355 58.4219ZM337.923 53.0498C338.481 53.0498 339.009 52.9776 339.508 52.8332C340.037 52.6599 340.507 52.4433 340.918 52.1833C341.329 51.8945 341.652 51.5623 341.887 51.1869C342.122 50.7825 342.239 50.3493 342.239 49.8872V47.9376C340.507 47.9376 339.097 48.0676 338.011 48.3275C336.954 48.5875 336.175 48.934 335.676 49.3673C335.177 49.8005 334.927 50.306 334.927 50.8836C334.927 51.4613 335.074 51.9089 335.368 52.2266C335.661 52.5443 336.029 52.761 336.469 52.8765C336.939 52.992 337.423 53.0498 337.923 53.0498Z" fill="#FF5EBE"/>
<path d="M8.94166 15.6615V0.801487H16.5178C17.6337 0.801487 18.5514 0.996444 19.2708 1.38636C20.0049 1.77627 20.5555 2.32504 20.9226 3.03266C21.2897 3.74027 21.4732 4.58508 21.4732 5.56709C21.4732 6.53465 21.2823 7.37946 20.9006 8.10152C20.5188 8.82358 19.9462 9.38679 19.1827 9.79114C18.4339 10.1811 17.4942 10.376 16.3637 10.376H11.8047V15.6615H8.94166ZM11.8047 7.97155H16.2756C17.0097 7.97155 17.575 7.76215 17.9714 7.34336C18.3825 6.91012 18.5881 6.31803 18.5881 5.56709C18.5881 5.06164 18.5 4.63563 18.3238 4.28904C18.1476 3.94245 17.8907 3.67529 17.553 3.48755C17.2153 3.29982 16.7895 3.20595 16.2756 3.20595H11.8047V7.97155Z" fill="#1B1B1B"/>
<path d="M23.4536 15.6615V4.26738H25.7L25.9203 6.06531H26.0744C26.2213 5.70428 26.3975 5.37213 26.603 5.06887C26.8232 4.75116 27.1022 4.49844 27.4399 4.3107C27.7776 4.10852 28.1887 4.00744 28.6732 4.00744C28.9082 4.00744 29.1211 4.0291 29.3119 4.07242C29.5175 4.11575 29.6717 4.15907 29.7744 4.20239V6.6935H28.9596C28.5044 6.6935 28.1006 6.75849 27.7482 6.88846C27.3959 7.00399 27.0949 7.19172 26.8453 7.45167C26.6104 7.71161 26.4342 8.03653 26.3167 8.42645C26.1992 8.81636 26.1405 9.27126 26.1405 9.79114V15.6615H23.4536Z" fill="#1B1B1B"/>
<path d="M36.3714 15.9214C35.1087 15.9214 34.0516 15.712 33.2 15.2932C32.3484 14.86 31.7097 14.2029 31.2839 13.322C30.8581 12.4411 30.6452 11.3219 30.6452 9.96444C30.6452 8.59252 30.8581 7.47333 31.2839 6.60685C31.7097 5.72594 32.3484 5.07609 33.2 4.65729C34.0516 4.22405 35.1087 4.00744 36.3714 4.00744C37.6488 4.00744 38.7059 4.22405 39.5428 4.65729C40.3944 5.07609 41.0331 5.72594 41.4589 6.60685C41.8847 7.47333 42.0976 8.59252 42.0976 9.96444C42.0976 11.3219 41.8847 12.4411 41.4589 13.322C41.0331 14.2029 40.3944 14.86 39.5428 15.2932C38.7059 15.712 37.6488 15.9214 36.3714 15.9214ZM36.3714 13.7553C37.0762 13.7553 37.6415 13.6253 38.0672 13.3653C38.5077 13.091 38.8234 12.6866 39.0143 12.1523C39.2198 11.6035 39.3226 10.9248 39.3226 10.1161V9.8128C39.3226 9.0041 39.2198 8.33258 39.0143 7.79825C38.8234 7.24949 38.5077 6.84513 38.0672 6.58519C37.6415 6.31081 37.0762 6.17362 36.3714 6.17362C35.6667 6.17362 35.094 6.31081 34.6536 6.58519C34.2278 6.84513 33.9121 7.24949 33.7065 7.79825C33.5157 8.33258 33.4202 9.0041 33.4202 9.8128V10.1161C33.4202 10.9248 33.5157 11.6035 33.7065 12.1523C33.9121 12.6866 34.2278 13.091 34.6536 13.3653C35.094 13.6253 35.6667 13.7553 36.3714 13.7553Z" fill="#1B1B1B"/>
<path d="M48.4109 15.9214C47.4712 15.9214 46.6563 15.712 45.9662 15.2932C45.2761 14.8744 44.7402 14.2246 44.3585 13.3437C43.9914 12.4628 43.8079 11.3291 43.8079 9.94277C43.8079 8.57086 43.9988 7.45166 44.3805 6.58519C44.7623 5.70428 45.2908 5.05442 45.9662 4.63563C46.6416 4.21683 47.4051 4.00744 48.2567 4.00744C48.7853 4.00744 49.2698 4.0652 49.7103 4.18073C50.1507 4.29626 50.5398 4.47678 50.8775 4.72228C51.2152 4.95334 51.5015 5.24216 51.7365 5.58875H51.8686V0H54.5555V15.6615H52.3311L52.1109 14.1452H51.9567C51.5896 14.7373 51.0904 15.1849 50.4591 15.4882C49.8424 15.777 49.1597 15.9214 48.4109 15.9214ZM49.2478 13.6469C49.8644 13.6469 50.3636 13.5098 50.7454 13.2354C51.1271 12.961 51.4061 12.5639 51.5823 12.044C51.7732 11.5241 51.8686 10.8887 51.8686 10.1377V9.85613C51.8686 9.29292 51.8172 8.78748 51.7144 8.3398C51.6116 7.89212 51.4501 7.51665 51.2299 7.21339C51.0243 6.91012 50.7527 6.67906 50.415 6.52021C50.092 6.36135 49.7029 6.28193 49.2478 6.28193C48.587 6.28193 48.0585 6.4119 47.662 6.67184C47.2803 6.91734 47.0013 7.30725 46.8251 7.84158C46.6636 8.36146 46.5829 9.02576 46.5829 9.83446V10.1377C46.5829 10.932 46.6636 11.5891 46.8251 12.109C47.0013 12.6288 47.2803 13.0188 47.662 13.2787C48.0585 13.5242 48.587 13.6469 49.2478 13.6469Z" fill="#1B1B1B"/>
<path d="M61.0921 15.9214C59.9762 15.9214 59.0659 15.6254 58.3611 15.0333C57.6711 14.4268 57.326 13.4014 57.326 11.9573V4.26738H60.0129V11.4808C60.0129 11.8851 60.057 12.2245 60.1451 12.4989C60.2478 12.7588 60.3873 12.9754 60.5635 13.1487C60.7544 13.3076 60.982 13.4231 61.2462 13.4953C61.5105 13.5675 61.8042 13.6036 62.1272 13.6036C62.6117 13.6036 63.0449 13.4881 63.4266 13.257C63.823 13.026 64.1314 12.7083 64.3516 12.3039C64.5865 11.8851 64.704 11.4158 64.704 10.8959V4.26738H67.3909V15.6615H65.1665L64.9462 14.1452H64.7921C64.5278 14.4918 64.2121 14.8022 63.8451 15.0766C63.4927 15.3366 63.0816 15.5387 62.6117 15.6832C62.1566 15.842 61.65 15.9214 61.0921 15.9214Z" fill="#1B1B1B"/>
<path d="M75.0774 15.9214C73.8734 15.9214 72.8676 15.712 72.0601 15.2932C71.2672 14.86 70.6726 14.2029 70.2762 13.322C69.8797 12.4411 69.6815 11.3219 69.6815 9.96444C69.6815 8.59252 69.8797 7.47333 70.2762 6.60685C70.6873 5.72594 71.2893 5.07609 72.0821 4.65729C72.8897 4.22405 73.8881 4.00744 75.0774 4.00744C75.8555 4.00744 76.5456 4.1013 77.1476 4.28904C77.7496 4.47678 78.2635 4.7656 78.6893 5.15551C79.1297 5.53098 79.4601 6.00032 79.6803 6.56353C79.9006 7.12674 80.0107 7.78381 80.0107 8.53475H77.2797C77.2797 8.00043 77.199 7.55997 77.0375 7.21339C76.876 6.8668 76.6264 6.60685 76.2887 6.43356C75.9656 6.24582 75.5472 6.15196 75.0333 6.15196C74.4313 6.15196 73.9395 6.28915 73.5577 6.56353C73.176 6.83791 72.8897 7.24949 72.6988 7.79825C72.5226 8.33258 72.4345 9.01132 72.4345 9.83446V10.1161C72.4345 10.9248 72.5226 11.6035 72.6988 12.1523C72.8897 12.701 73.1833 13.1126 73.5797 13.387C73.9762 13.6469 74.4974 13.7769 75.1434 13.7769C75.6426 13.7769 76.0537 13.6903 76.3768 13.517C76.7145 13.3292 76.9714 13.0549 77.1476 12.6938C77.3238 12.3328 77.4119 11.8996 77.4119 11.3941H80.0107C80.0107 12.1017 79.9006 12.7371 79.6803 13.3004C79.4601 13.8636 79.1371 14.3401 78.7113 14.73C78.2855 15.1199 77.7643 15.416 77.1476 15.6182C76.5456 15.8203 75.8555 15.9214 75.0774 15.9214Z" fill="#1B1B1B"/>
<path d="M85.3597 15.9214C84.6403 15.9214 84.075 15.7842 83.6639 15.5099C83.2528 15.221 82.9591 14.86 82.7829 14.4268C82.6214 13.9791 82.5407 13.5242 82.5407 13.0621V6.43356H81.1532V4.26738H82.6067L83.0913 1.08309H85.2276V4.26738H87.2317V6.43356H85.2276V12.8021C85.2276 13.1054 85.3083 13.3437 85.4698 13.517C85.6313 13.6758 85.8736 13.7553 86.1966 13.7553H87.2317V15.5748C87.0849 15.6326 86.9014 15.6832 86.6811 15.7265C86.4756 15.7842 86.2554 15.8276 86.0204 15.8565C85.7855 15.8998 85.5653 15.9214 85.3597 15.9214Z" fill="#1B1B1B"/>
<path d="M97.6633 15.9214C96.7236 15.9214 95.9087 15.712 95.2186 15.2932C94.5286 14.8744 93.9926 14.2246 93.6109 13.3437C93.2438 12.4628 93.0603 11.3291 93.0603 9.94277C93.0603 8.57086 93.2512 7.45166 93.6329 6.58519C94.0147 5.70428 94.5432 5.05442 95.2186 4.63563C95.894 4.21683 96.6575 4.00744 97.5091 4.00744C98.0377 4.00744 98.5222 4.0652 98.9627 4.18073C99.4031 4.29626 99.7922 4.47678 100.13 4.72228C100.468 4.95334 100.754 5.24216 100.989 5.58875H101.121V0H103.808V15.6615H101.584L101.363 14.1452H101.209C100.842 14.7373 100.343 15.1849 99.7115 15.4882C99.0948 15.777 98.4121 15.9214 97.6633 15.9214ZM98.5002 13.6469C99.1168 13.6469 99.6161 13.5098 99.9978 13.2354C100.38 12.961 100.659 12.5639 100.835 12.044C101.026 11.5241 101.121 10.8887 101.121 10.1377V9.85613C101.121 9.29292 101.07 8.78748 100.967 8.3398C100.864 7.89212 100.703 7.51665 100.482 7.21339C100.277 6.91012 100.005 6.67906 99.6674 6.52021C99.3444 6.36135 98.9553 6.28193 98.5002 6.28193C97.8395 6.28193 97.3109 6.4119 96.9145 6.67184C96.5327 6.91734 96.2537 7.30725 96.0776 7.84158C95.916 8.36146 95.8353 9.02576 95.8353 9.83446V10.1377C95.8353 10.932 95.916 11.5891 96.0776 12.109C96.2537 12.6288 96.5327 13.0188 96.9145 13.2787C97.3109 13.5242 97.8395 13.6469 98.5002 13.6469Z" fill="#1B1B1B"/>
<path d="M111.644 15.9214C110.411 15.9214 109.383 15.712 108.561 15.2932C107.738 14.86 107.122 14.2029 106.711 13.322C106.299 12.4411 106.094 11.3219 106.094 9.96444C106.094 8.59252 106.299 7.47333 106.711 6.60685C107.122 5.72594 107.738 5.07609 108.561 4.65729C109.383 4.22405 110.411 4.00744 111.644 4.00744C112.76 4.00744 113.692 4.21683 114.441 4.63563C115.204 5.03998 115.777 5.66818 116.159 6.52021C116.541 7.37224 116.731 8.47699 116.731 9.83446V10.6143H108.847C108.876 11.3219 108.986 11.9212 109.177 12.4122C109.368 12.8888 109.662 13.2498 110.058 13.4953C110.469 13.7264 111.005 13.8419 111.666 13.8419C112.004 13.8419 112.319 13.7986 112.613 13.7119C112.907 13.6253 113.164 13.4953 113.384 13.322C113.604 13.1343 113.773 12.9032 113.89 12.6288C114.022 12.3545 114.089 12.0367 114.089 11.6757H116.731C116.731 12.3978 116.599 13.026 116.335 13.5603C116.085 14.0946 115.726 14.5351 115.256 14.8817C114.801 15.2283 114.265 15.4882 113.648 15.6615C113.031 15.8348 112.363 15.9214 111.644 15.9214ZM108.891 8.75137H113.934C113.934 8.27481 113.876 7.87046 113.758 7.53831C113.655 7.20616 113.501 6.93178 113.296 6.71516C113.105 6.49855 112.87 6.34691 112.591 6.26026C112.312 6.15918 111.996 6.10863 111.644 6.10863C111.071 6.10863 110.587 6.2025 110.19 6.39024C109.809 6.57797 109.515 6.8668 109.309 7.25671C109.104 7.64662 108.964 8.14484 108.891 8.75137Z" fill="#1B1B1B"/>
<path d="M123.527 15.9214C122.69 15.9214 121.956 15.8348 121.324 15.6615C120.693 15.4738 120.164 15.221 119.739 14.9033C119.313 14.5856 118.99 14.2174 118.77 13.7986C118.564 13.3653 118.461 12.896 118.461 12.3906C118.461 12.3184 118.461 12.2534 118.461 12.1956C118.476 12.1378 118.483 12.0945 118.483 12.0656H121.126C121.126 12.0945 121.126 12.1234 121.126 12.1523C121.126 12.1812 121.126 12.21 121.126 12.2389C121.141 12.6288 121.266 12.9465 121.501 13.192C121.735 13.4231 122.044 13.5892 122.426 13.6903C122.807 13.7914 123.211 13.8419 123.637 13.8419C124.019 13.8419 124.378 13.8058 124.716 13.7336C125.068 13.6469 125.355 13.517 125.575 13.3437C125.81 13.1559 125.927 12.9177 125.927 12.6288C125.927 12.2534 125.781 11.9645 125.487 11.7624C125.193 11.5602 124.804 11.3941 124.32 11.2641C123.85 11.1342 123.343 10.997 122.8 10.8526C122.315 10.7226 121.831 10.5782 121.346 10.4193C120.862 10.2605 120.421 10.0583 120.025 9.8128C119.643 9.5673 119.328 9.2496 119.078 8.85968C118.843 8.46977 118.726 7.98599 118.726 7.40834C118.726 6.84513 118.85 6.35413 119.1 5.93534C119.35 5.51654 119.695 5.16995 120.135 4.89557C120.576 4.60675 121.097 4.39013 121.699 4.24572C122.301 4.10131 122.954 4.0291 123.659 4.0291C124.349 4.0291 124.973 4.10131 125.531 4.24572C126.104 4.39013 126.595 4.59953 127.007 4.87391C127.432 5.13385 127.755 5.45878 127.976 5.84869C128.21 6.22416 128.328 6.64296 128.328 7.10508C128.328 7.20616 128.321 7.30725 128.306 7.40834C128.306 7.50943 128.306 7.56719 128.306 7.58163H125.685V7.43C125.685 7.15562 125.597 6.92456 125.421 6.73682C125.259 6.53465 125.017 6.37579 124.694 6.26026C124.386 6.14473 123.997 6.08697 123.527 6.08697C123.174 6.08697 122.866 6.11585 122.602 6.17362C122.337 6.23138 122.117 6.31081 121.941 6.4119C121.78 6.51299 121.655 6.62852 121.567 6.75849C121.479 6.88846 121.435 7.03287 121.435 7.19172C121.435 7.46611 121.545 7.68272 121.765 7.84158C121.985 8.00043 122.279 8.13762 122.646 8.25315C123.028 8.36868 123.439 8.49143 123.879 8.6214C124.408 8.76582 124.951 8.91745 125.509 9.0763C126.067 9.22071 126.581 9.40845 127.051 9.63951C127.535 9.87057 127.924 10.1955 128.218 10.6143C128.511 11.0331 128.658 11.5891 128.658 12.2823C128.658 12.9465 128.526 13.517 128.262 13.9935C128.012 14.4557 127.653 14.8311 127.183 15.1199C126.728 15.3943 126.184 15.5965 125.553 15.7265C124.936 15.8564 124.261 15.9214 123.527 15.9214Z" fill="#1B1B1B"/>
<path d="M130.927 2.51277V0H133.614V2.51277H130.927ZM130.927 15.6615V4.26738H133.614V15.6615H130.927Z" fill="#1B1B1B"/>
<path d="M138.392 19.6039C137.878 19.6039 137.394 19.5029 136.939 19.3007C136.483 19.0985 136.116 18.7952 135.837 18.3909C135.558 18.001 135.419 17.5172 135.419 16.9395C135.419 16.3041 135.602 15.8059 135.97 15.4449C136.351 15.0694 136.77 14.7878 137.225 14.6001C136.887 14.4268 136.608 14.1957 136.388 13.9069C136.182 13.6181 136.08 13.2715 136.08 12.8671C136.08 12.3184 136.285 11.8851 136.696 11.5674C137.107 11.2353 137.577 11.0186 138.106 10.9176C137.563 10.5854 137.144 10.1594 136.85 9.63951C136.572 9.11963 136.432 8.52753 136.432 7.86324C136.432 7.06897 136.623 6.39024 137.005 5.82703C137.401 5.24938 137.974 4.8017 138.722 4.484C139.471 4.16629 140.374 4.00744 141.431 4.00744C141.857 4.00744 142.268 4.03632 142.665 4.09408C143.061 4.15185 143.421 4.2385 143.744 4.35403C144.258 4.05076 144.61 3.71139 144.801 3.33592C144.992 2.94601 145.095 2.6283 145.109 2.3828H147.73C147.73 2.88824 147.627 3.33592 147.422 3.72583C147.231 4.11575 146.959 4.44067 146.607 4.70061C146.255 4.94611 145.829 5.12663 145.33 5.24216C145.697 5.55987 145.976 5.94256 146.167 6.39024C146.357 6.83791 146.453 7.32891 146.453 7.86324C146.453 8.65751 146.262 9.34346 145.88 9.92111C145.513 10.4988 144.963 10.9464 144.228 11.2641C143.509 11.5819 142.621 11.7407 141.564 11.7407H139.78C139.471 11.7407 139.229 11.8057 139.053 11.9357C138.891 12.0656 138.811 12.2461 138.811 12.4772C138.811 12.6649 138.884 12.831 139.031 12.9754C139.192 13.1198 139.413 13.192 139.692 13.192H144.757C145.623 13.192 146.335 13.4736 146.893 14.0369C147.466 14.5856 147.752 15.2932 147.752 16.1597C147.752 16.8096 147.576 17.3944 147.224 17.9143C146.886 18.4342 146.409 18.8458 145.792 19.149C145.175 19.4523 144.456 19.6039 143.634 19.6039H138.392ZM139.361 17.6977H143.612C143.891 17.6977 144.133 17.6472 144.339 17.5461C144.559 17.4594 144.728 17.3295 144.845 17.1562C144.977 16.9829 145.043 16.7879 145.043 16.5713C145.043 16.1958 144.918 15.9142 144.669 15.7265C144.434 15.5387 144.14 15.4449 143.788 15.4449H139.361C139.009 15.4449 138.715 15.546 138.48 15.7481C138.245 15.9648 138.128 16.2391 138.128 16.5713C138.128 16.9034 138.238 17.1706 138.458 17.3728C138.693 17.5894 138.994 17.6977 139.361 17.6977ZM141.453 9.87779C142.232 9.87779 142.812 9.70449 143.193 9.35791C143.59 8.99687 143.788 8.49865 143.788 7.86324C143.788 7.22783 143.59 6.73682 143.193 6.39024C142.812 6.04365 142.232 5.87035 141.453 5.87035C140.675 5.87035 140.088 6.04365 139.692 6.39024C139.31 6.73682 139.119 7.22783 139.119 7.86324C139.119 8.28203 139.2 8.64307 139.361 8.94633C139.537 9.2496 139.794 9.48066 140.132 9.63951C140.484 9.79836 140.925 9.87779 141.453 9.87779Z" fill="#1B1B1B"/>
<path d="M149.488 15.6615V4.26738H151.735L151.955 5.7837H152.109C152.373 5.43712 152.682 5.13385 153.034 4.87391C153.401 4.59953 153.812 4.39013 154.267 4.24572C154.737 4.08686 155.251 4.00744 155.809 4.00744C156.543 4.00744 157.189 4.13741 157.747 4.39735C158.32 4.65729 158.768 5.07609 159.091 5.65374C159.414 6.23138 159.575 7.00399 159.575 7.97155V15.6615H156.866V8.44811C156.866 8.04375 156.815 7.71161 156.712 7.45167C156.624 7.17728 156.484 6.96066 156.293 6.80181C156.117 6.62852 155.897 6.50577 155.633 6.43356C155.368 6.36135 155.075 6.32525 154.752 6.32525C154.267 6.32525 153.827 6.44078 153.43 6.67184C153.049 6.9029 152.74 7.22061 152.505 7.62496C152.285 8.02931 152.175 8.49865 152.175 9.03298V15.6615H149.488Z" fill="#1B1B1B"/>
<path d="M167.327 15.9214C166.094 15.9214 165.066 15.712 164.244 15.2932C163.422 14.86 162.805 14.2029 162.394 13.322C161.983 12.4411 161.777 11.3219 161.777 9.96444C161.777 8.59252 161.983 7.47333 162.394 6.60685C162.805 5.72594 163.422 5.07609 164.244 4.65729C165.066 4.22405 166.094 4.00744 167.327 4.00744C168.443 4.00744 169.375 4.21683 170.124 4.63563C170.888 5.03998 171.46 5.66818 171.842 6.52021C172.224 7.37224 172.415 8.47699 172.415 9.83446V10.6143H164.53C164.559 11.3219 164.67 11.9212 164.86 12.4122C165.051 12.8888 165.345 13.2498 165.741 13.4953C166.152 13.7264 166.688 13.8419 167.349 13.8419C167.687 13.8419 168.002 13.7986 168.296 13.7119C168.59 13.6253 168.847 13.4953 169.067 13.322C169.287 13.1343 169.456 12.9032 169.574 12.6288C169.706 12.3545 169.772 12.0367 169.772 11.6757H172.415C172.415 12.3978 172.282 13.026 172.018 13.5603C171.769 14.0946 171.409 14.5351 170.939 14.8817C170.484 15.2283 169.948 15.4882 169.331 15.6615C168.715 15.8348 168.047 15.9214 167.327 15.9214ZM164.574 8.75137H169.618C169.618 8.27481 169.559 7.87046 169.441 7.53831C169.339 7.20616 169.184 6.93178 168.979 6.71516C168.788 6.49855 168.553 6.34691 168.274 6.26026C167.995 6.15918 167.679 6.10863 167.327 6.10863C166.754 6.10863 166.27 6.2025 165.873 6.39024C165.492 6.57797 165.198 6.8668 164.993 7.25671C164.787 7.64662 164.648 8.14484 164.574 8.75137Z" fill="#1B1B1B"/>
<path d="M174.695 15.6615V4.26738H176.941L177.162 6.06531H177.316C177.463 5.70428 177.639 5.37213 177.844 5.06887C178.065 4.75116 178.344 4.49844 178.681 4.3107C179.019 4.10852 179.43 4.00744 179.915 4.00744C180.15 4.00744 180.362 4.0291 180.553 4.07242C180.759 4.11575 180.913 4.15907 181.016 4.20239V6.6935H180.201C179.746 6.6935 179.342 6.75849 178.99 6.88846C178.637 7.00399 178.336 7.19172 178.087 7.45167C177.852 7.71161 177.676 8.03653 177.558 8.42645C177.441 8.81636 177.382 9.27126 177.382 9.79114V15.6615H174.695Z" fill="#1B1B1B"/>
</svg>
