<svg width="32" height="32" viewBox="0 0 32 32" fill="none" xmlns="http://www.w3.org/2000/svg">
<path d="M6.13698 2.78759C4.47877 3.29781 0.567084 22.6011 2.94811 25.4924C4.13176 26.9297 10.6041 29.1606 16.724 29.1489C22.9148 29.1371 28.7518 26.8637 29.6071 24.9821C31.3078 21.2405 27.5662 2.78759 25.6954 2.78759C23.8246 2.78759 19.8704 9.63304 19.8704 9.63304C19.8704 9.63304 18.1271 8.74016 15.491 8.78267C12.8549 8.82519 11.1541 9.29289 11.1541 9.29289C11.1541 9.29289 7.79519 2.27738 6.13698 2.78759Z" fill="#D9D9D9"/>
<path fill-rule="evenodd" clip-rule="evenodd" d="M6.39363 4.25844C6.4844 4.3354 6.59101 4.43666 6.71252 4.56656C7.18705 5.07388 7.71797 5.83102 8.23007 6.65767C8.73529 7.4732 9.19387 8.30982 9.52776 8.94636C9.69418 9.26363 9.82844 9.52891 9.9207 9.71408C9.96681 9.80662 10.0024 9.87902 10.0261 9.92776L10.0528 9.98263L10.0592 9.9959L10.0606 9.99885L10.4507 10.8136L11.3195 10.5747L11.3209 10.5743L11.3287 10.5723L11.3743 10.5607C11.4172 10.55 11.4849 10.5337 11.5758 10.5135C11.7576 10.4732 12.0321 10.4174 12.3875 10.3598C13.0987 10.2446 14.1306 10.1228 15.3892 10.1025C16.5822 10.0833 17.5704 10.2759 18.2543 10.4706C18.5957 10.5678 18.8591 10.6649 19.0315 10.7349C19.1176 10.7699 19.1807 10.7979 19.2192 10.8157C19.2385 10.8245 19.2515 10.8308 19.2582 10.8341L19.2623 10.8361L20.1727 11.3024L20.6863 10.4133L20.6884 10.4098L20.696 10.3967L20.7275 10.3427C20.7556 10.2948 20.7976 10.2237 20.852 10.1326C20.9608 9.95043 21.119 9.68893 21.3148 9.37464C21.7075 8.74457 22.2472 7.90925 22.8409 7.07805C23.4396 6.23999 24.0706 5.43787 24.6452 4.85608C24.9188 4.57909 25.1553 4.37697 25.3479 4.24679C25.365 4.27621 25.3831 4.30831 25.4021 4.34328C25.6343 4.77083 25.9035 5.4349 26.1897 6.30628C26.7574 8.03521 27.337 10.4095 27.81 12.9216C28.2826 15.4316 28.642 18.0431 28.7793 20.243C28.848 21.3439 28.8599 22.3222 28.8071 23.1232C28.7527 23.9504 28.6346 24.4893 28.5047 24.7752C28.4257 24.9488 28.1262 25.303 27.412 25.7496C26.7357 26.1725 25.812 26.6014 24.6958 26.9854C22.4649 27.7529 19.5758 28.3033 16.6028 28.3089C13.6636 28.3145 10.6187 27.7797 8.1673 27.0669C6.94299 26.711 5.8876 26.3166 5.08202 25.9354C4.23004 25.5323 3.79546 25.2071 3.66258 25.0458C3.56205 24.9237 3.39481 24.5572 3.28295 23.7915C3.17761 23.0704 3.14105 22.1447 3.16911 21.0648C3.22512 18.9094 3.53459 16.2638 3.97351 13.6671C4.41208 11.0724 4.97355 8.56378 5.5218 6.68666C5.79723 5.74365 6.0607 4.99003 6.29252 4.47284C6.32851 4.39256 6.36227 4.32129 6.39363 4.25844ZM25.1519 3.96815C25.1519 3.96815 25.1555 3.97082 25.1629 3.97834C25.1556 3.97227 25.1519 3.96815 25.1519 3.96815ZM19.2962 8.53214C19.3537 8.43845 19.4156 8.33817 19.4817 8.23223C19.8889 7.57878 20.4546 6.70274 21.0833 5.82258C21.7071 4.94928 22.4153 4.04004 23.1083 3.33831C23.4539 2.98837 23.8226 2.66229 24.199 2.41697C24.5556 2.18452 25.0347 1.94759 25.5762 1.94759C26.1388 1.94759 26.5296 2.28169 26.7287 2.49041C26.9522 2.72484 27.1404 3.01823 27.3002 3.31232C27.624 3.90853 27.9407 4.71533 28.2419 5.63238C28.8487 7.4803 29.449 9.9531 29.9327 12.5219C30.4168 15.0929 30.7908 17.7961 30.9351 20.1085C31.0072 21.2637 31.0233 22.3409 30.9625 23.2652C30.9033 24.1634 30.7663 25.0195 30.471 25.669C30.1223 26.4362 29.3715 27.0718 28.5573 27.581C27.7051 28.1139 26.6223 28.6069 25.3985 29.028C22.9494 29.8705 19.8246 30.4628 16.6069 30.4689C13.4261 30.475 10.1749 29.9001 7.56423 29.141C6.2575 28.7611 5.09037 28.329 4.15823 27.8879C3.2725 27.4689 2.45416 26.9762 1.99521 26.4189C1.50049 25.8182 1.26912 24.949 1.14563 24.1037C1.01563 23.2138 0.980104 22.153 1.00984 21.0087C1.06943 18.7156 1.39507 15.9614 1.84372 13.3071C2.29272 10.6507 2.87127 8.05719 3.44843 6.0811C3.73571 5.0975 4.03128 4.23675 4.32147 3.58935C4.46522 3.26863 4.6233 2.96463 4.79795 2.71529C4.93731 2.51633 5.22743 2.14081 5.70015 1.99535C6.31232 1.80699 6.86896 2.00814 7.2448 2.22266C7.62933 2.44214 7.98191 2.76167 8.28999 3.09103C8.91163 3.75562 9.53137 4.65669 10.0663 5.52015C10.6081 6.39472 11.0929 7.28009 11.4406 7.94301C11.5074 8.07037 11.5693 8.18985 11.6258 8.29984C11.7521 8.27641 11.8911 8.25208 12.0421 8.22762C12.8403 8.09835 13.9768 7.96503 15.3544 7.94281C16.7975 7.91954 17.999 8.15209 18.8458 8.39319C19.009 8.43967 19.1594 8.48656 19.2962 8.53214ZM6.59502 3.9169C6.60548 3.90384 6.6109 3.89936 6.6109 3.89936C6.6109 3.89936 6.60573 3.90658 6.59502 3.9169ZM21.3825 17.275C19.8468 16.188 17.552 14.9863 15.133 15.1182C12.736 15.249 10.8917 16.5121 9.74578 17.5864C9.60911 17.7146 9.57809 17.8518 9.59815 17.9776C9.61986 18.1138 9.71163 18.2784 9.91474 18.3921C10.7443 18.8566 11.7903 19.3849 12.867 19.7852C13.9603 20.1918 14.9993 20.4333 15.841 20.4013C16.6458 20.3707 17.602 20.0906 18.5982 19.6586C19.5814 19.2322 20.535 18.6885 21.3168 18.1947C21.5301 18.06 21.6127 17.8752 21.6199 17.7201C21.6268 17.5713 21.5682 17.4064 21.3825 17.275ZM15.0153 12.9614C18.1677 12.7895 20.9616 14.3307 22.6304 15.5119C24.2814 16.6805 24.0918 18.9969 22.4702 20.021C21.632 20.5503 20.5765 21.1551 19.4575 21.6403C18.3513 22.12 17.1118 22.5146 15.923 22.5597C14.6656 22.6075 13.3147 22.2562 12.1142 21.8098C10.8971 21.3573 9.74527 20.7728 8.85951 20.2768C7.3347 19.4231 6.86287 17.3283 8.2685 16.0106C9.6064 14.7564 11.9106 13.1308 15.0153 12.9614Z" fill="#2A76E9"/>
<path d="M18.1336 17.6677C18.1336 19.3172 16.9874 20.6544 15.5736 20.6544C14.1598 20.6544 13.0136 19.3172 13.0136 17.6677C13.0136 16.0182 14.1598 14.6811 15.5736 14.6811C16.9874 14.6811 18.1336 16.0182 18.1336 17.6677Z" fill="#2A76E9"/>
</svg>
