<svg width="45" height="45" viewBox="0 0 45 45" fill="none" xmlns="http://www.w3.org/2000/svg">
<path fill-rule="evenodd" clip-rule="evenodd" d="M30.7643 22.6684C28.9221 21.2522 25.3814 19.0307 21.3606 19.25C17.3839 19.467 14.5442 21.7726 13.1033 23.2617C11.9701 24.4329 12.3521 26.213 13.655 26.9777C14.6481 27.5607 16.0672 28.3266 17.5999 28.9361C19.1128 29.5377 20.8333 30.0269 22.3997 29.9674C23.9032 29.9103 25.502 29.3569 26.9106 28.7031C28.3353 28.0419 29.6491 27.2381 30.6028 26.6037C31.9775 25.6893 32.1294 23.7179 30.7643 22.6684ZM23.3026 21.3463C25.8569 21.7491 28.1285 23.1648 29.5453 24.254C29.678 24.356 29.7189 24.478 29.7134 24.5874C29.7078 24.7009 29.6493 24.836 29.4951 24.9385C28.59 25.5406 27.3687 26.2856 26.0686 26.889C24.7964 27.4794 23.5248 27.8979 22.4358 27.9633C23.8861 27.7171 25 26.2603 25 24.5C25 23.1116 24.3071 21.912 23.3026 21.3463ZM20.7548 21.3148C17.8699 21.705 15.7321 23.421 14.5406 24.6525C14.4447 24.7515 14.4237 24.8541 14.439 24.9474C14.4555 25.0472 14.5209 25.1669 14.6674 25.2529C15.6118 25.8072 16.9349 26.5193 18.339 27.0777C19.3877 27.4947 20.4294 27.8045 21.3649 27.9214C20.0131 27.5815 19 26.1788 19 24.5C19 23.0853 19.7195 21.8666 20.7548 21.3148Z" fill="#2A76E9"/>
<path fill-rule="evenodd" clip-rule="evenodd" d="M26.8055 13.5833C26.6839 13.7783 26.5742 13.9569 26.4781 14.1147C26.2724 14.0419 26.0328 13.9639 25.7621 13.8869C24.7898 13.61 23.4081 13.3424 21.7477 13.3692C20.148 13.395 18.829 13.5498 17.9043 13.6996C17.648 13.7411 17.4218 13.7823 17.2281 13.8202C17.1399 13.6468 17.037 13.4471 16.9217 13.2272C16.5159 12.4536 15.951 11.4221 15.3206 10.4044C14.6966 9.39711 13.9812 8.35887 13.2708 7.5994C12.9182 7.22237 12.526 6.8694 12.1083 6.63101C11.6987 6.39721 11.1258 6.19773 10.508 6.38782C10.0448 6.53034 9.7485 6.90395 9.59016 7.13001C9.39913 7.40272 9.22181 7.74199 9.05661 8.11055C8.72373 8.85322 8.38129 9.84873 8.0461 10.9964C7.3733 13.3 6.69741 16.3288 6.17252 19.4342C5.64796 22.5376 5.26833 25.7518 5.19894 28.4221C5.1643 29.7552 5.20606 30.9816 5.35537 32.0038C5.49865 32.9846 5.7619 33.9413 6.29318 34.5864C6.79091 35.1908 7.70271 35.7476 8.73653 36.2367C9.81332 36.7462 11.1673 37.2479 12.6885 37.6902C15.7283 38.5741 19.5129 39.2428 23.2107 39.2358C26.9513 39.2287 30.5842 38.5397 33.4274 37.5616C34.8484 37.0728 36.0977 36.5029 37.0747 35.8919C38.0166 35.3029 38.841 34.5927 39.2164 33.7666C39.5421 33.0502 39.7004 32.0859 39.7691 31.0421C39.8394 29.9741 39.8211 28.7239 39.737 27.3768C39.5687 24.6809 39.1322 21.5243 38.5663 18.5189C38.0008 15.5155 37.2999 12.6299 36.5936 10.479C36.2425 9.4099 35.8772 8.48199 35.509 7.80405C35.3269 7.46879 35.1193 7.14793 34.8804 6.8974C34.6642 6.67068 34.2718 6.3436 33.7221 6.3436C33.1632 6.3436 32.6541 6.58928 32.2533 6.85055C31.8342 7.12373 31.417 7.49143 31.0191 7.89436C30.2215 8.70196 29.401 9.7543 28.6731 10.7734C27.9407 11.7988 27.2809 12.8204 26.8055 13.5833ZM11.8102 8.96563C11.5418 8.67862 11.321 8.49335 11.1551 8.39074C11.0785 8.51787 10.9865 8.69479 10.8817 8.9286C10.6028 9.5507 10.2901 10.447 9.96589 11.5571C9.31986 13.769 8.65978 16.7193 8.14455 19.7675C7.62899 22.8176 7.26434 25.9313 7.19827 28.474C7.16517 29.7475 7.20789 30.8488 7.33437 31.7147C7.46688 32.6218 7.67075 33.1131 7.83704 33.315C8.03286 33.5528 8.58932 33.9545 9.59189 34.4288C10.5515 34.8829 11.802 35.3497 13.2469 35.7698C16.1392 36.6108 19.7328 37.2424 23.2069 37.2358C26.721 37.2291 30.1356 36.579 32.7768 35.6704C34.0981 35.2158 35.2002 34.7053 36.0143 34.1962C36.8635 33.6651 37.2701 33.2155 37.3957 32.939C37.5683 32.5593 37.709 31.8887 37.7734 30.9107C37.8362 29.9568 37.8218 28.7982 37.7409 27.5014C37.5791 24.9095 37.1561 21.8378 36.6009 18.889C36.0453 15.9381 35.3635 13.1437 34.6934 11.1029C34.3562 10.0762 34.0349 9.28042 33.7515 8.75864C33.6694 8.60751 33.5985 8.49442 33.5406 8.41248C33.4878 8.43891 33.423 8.47547 33.3454 8.52604C33.0914 8.69156 32.7869 8.95058 32.4421 9.29971C31.7542 9.99624 31.0052 10.9494 30.3006 11.9358C29.6005 12.9159 28.9648 13.8998 28.5029 14.6411C28.2723 15.011 28.0861 15.3189 27.9579 15.5336C27.8938 15.6409 27.8442 15.7249 27.811 15.7816L27.7735 15.8456L27.7623 15.865L27.2863 16.6891L26.4433 16.2573L26.4419 16.2566L26.4345 16.253C26.425 16.2484 26.408 16.2402 26.3837 16.229C26.335 16.2066 26.2573 16.1721 26.1524 16.1295C25.9424 16.0443 25.6247 15.9272 25.2145 15.8104C24.393 15.5766 23.2087 15.3459 21.7799 15.369C20.2904 15.393 19.0683 15.5371 18.2241 15.6739C17.8023 15.7422 17.4755 15.8085 17.2578 15.8568C17.149 15.881 17.0675 15.9006 17.015 15.9137C16.9888 15.9202 16.9698 15.9251 16.9584 15.9281L16.9468 15.9312L16.9457 15.9315L16.1406 16.1529L15.7796 15.3989L15.7775 15.3945L15.7698 15.3785L15.7381 15.3133C15.7099 15.2555 15.668 15.17 15.6136 15.0609C15.5048 14.8425 15.3466 14.5299 15.1506 14.1563C14.7576 13.4071 14.217 12.4207 13.6204 11.4577C13.0175 10.4845 12.3844 9.57948 11.8102 8.96563ZM33.4022 8.24883C33.4022 8.24842 33.4061 8.25122 33.4138 8.25846C33.4061 8.25286 33.4022 8.24924 33.4022 8.24883ZM11.2884 8.19984C11.2945 8.1931 11.2977 8.19034 11.2977 8.19064C11.2977 8.19095 11.2947 8.19432 11.2884 8.19984Z" fill="#2A76E9"/>
</svg>
