<svg width="45" height="45" viewBox="0 0 45 45" fill="none" xmlns="http://www.w3.org/2000/svg">
<path d="M8.63122 3.92006C6.29936 4.63755 0.79856 31.7828 4.14687 35.8486C5.81139 37.8698 14.9132 41.0071 23.5193 40.9907C32.225 40.9741 40.4333 37.7771 41.636 35.1311C44.0277 29.8695 38.766 3.92006 36.1352 3.92006C33.5044 3.92006 27.9438 13.5465 27.9438 13.5465C27.9438 13.5465 25.4924 12.2908 21.7853 12.3506C18.0782 12.4104 15.6866 13.0681 15.6866 13.0681C15.6866 13.0681 10.9631 3.20256 8.63122 3.92006Z" fill="white"/>
<path fill-rule="evenodd" clip-rule="evenodd" d="M8.99104 5.98843C9.11869 6.09665 9.26861 6.23905 9.43948 6.42172C10.1068 7.13514 10.8534 8.19987 11.5735 9.36234C12.284 10.5092 12.9289 11.6857 13.3984 12.5808C13.6324 13.027 13.8212 13.4 13.951 13.6604C14.0158 13.7906 14.0658 13.8924 14.0993 13.9609L14.1367 14.0381L14.1457 14.0567L14.1477 14.0609L14.6963 15.2067L15.918 14.8707L15.9201 14.8701L15.9309 14.8673L15.9951 14.8509C16.0555 14.8359 16.1506 14.813 16.2784 14.7846C16.5341 14.7279 16.9202 14.6494 17.4199 14.5685C18.4201 14.4065 19.8712 14.2352 21.6411 14.2067C23.3187 14.1796 24.7084 14.4505 25.6701 14.7243C26.1502 14.861 26.5205 14.9976 26.763 15.096C26.8841 15.1451 26.9729 15.1846 27.027 15.2095C27.0541 15.222 27.0725 15.2308 27.0819 15.2354L27.0877 15.2382L28.3679 15.894L29.0901 14.6438L29.093 14.6388L29.1037 14.6203L29.1481 14.5444C29.1876 14.4771 29.2466 14.377 29.3231 14.249C29.4761 13.9928 29.6985 13.625 29.974 13.1831C30.5261 12.297 31.2852 11.1224 32.1201 9.9535C32.9619 8.77497 33.8493 7.64699 34.6573 6.82886C35.042 6.43933 35.3746 6.15511 35.6455 5.97205C35.6696 6.01341 35.695 6.05856 35.7217 6.10773C36.0483 6.70898 36.4269 7.64282 36.8292 8.86819C37.6276 11.2995 38.4426 14.6383 39.1078 18.171C39.7724 21.7006 40.2778 25.3731 40.4709 28.4668C40.5676 30.0148 40.5842 31.3906 40.51 32.5171C40.4334 33.6802 40.2674 34.4381 40.0847 34.8402C39.9737 35.0843 39.5524 35.5824 38.5481 36.2104C37.5971 36.8051 36.2981 37.4083 34.7285 37.9483C31.5913 39.0276 27.5285 39.8015 23.3476 39.8094C19.2145 39.8173 14.9326 39.0652 11.4853 38.0629C9.76358 37.5623 8.27944 37.0077 7.14659 36.4717C5.94849 35.9048 5.33737 35.4475 5.1505 35.2206C5.00913 35.049 4.77395 34.5335 4.61665 33.4567C4.46851 32.4427 4.4171 31.141 4.45656 29.6224C4.53533 26.5913 4.97052 22.871 5.58775 19.2193C6.20449 15.5706 6.99406 12.0428 7.76504 9.40311C8.15235 8.077 8.52286 7.01723 8.84886 6.28992C8.89946 6.17702 8.94694 6.07681 8.99104 5.98843ZM35.3699 5.5802C35.3699 5.5802 35.375 5.58396 35.3853 5.59454C35.3751 5.586 35.3699 5.5802 35.3699 5.5802ZM27.1352 11.9983C27.2161 11.8666 27.3032 11.7256 27.3961 11.5766C27.9687 10.6576 28.7643 9.42572 29.6484 8.18799C30.5256 6.95992 31.5215 5.6813 32.4961 4.69449C32.9821 4.20239 33.5006 3.74383 34.0299 3.39885C34.5313 3.07197 35.2051 2.7388 35.9665 2.7388C36.7577 2.7388 37.3073 3.20862 37.5872 3.50213C37.9016 3.83179 38.1662 4.24438 38.3909 4.65795C38.8463 5.49636 39.2917 6.63092 39.7151 7.92052C40.5685 10.5192 41.4127 13.9965 42.0928 17.6089C42.7736 21.2244 43.2995 25.0258 43.5025 28.2775C43.6039 29.9021 43.6266 31.4168 43.541 32.7166C43.4578 33.9797 43.2651 35.1837 42.8499 36.0971C42.3595 37.1759 41.3037 38.0697 40.1587 38.7858C38.9603 39.5352 37.4376 40.2285 35.7166 40.8206C32.2726 42.0054 27.8783 42.8383 23.3534 42.8469C18.8805 42.8554 14.3084 42.0471 10.6372 40.9796C8.79961 40.4453 7.15834 39.8376 5.84751 39.2174C4.60195 38.6281 3.45116 37.9353 2.80576 37.1516C2.11006 36.3068 1.7847 35.0846 1.61105 33.8958C1.42823 32.6443 1.37827 31.1527 1.42009 29.5435C1.50388 26.3188 1.96182 22.4457 2.59273 18.7131C3.22414 14.9776 4.03772 11.3304 4.84935 8.55153C5.25334 7.16835 5.66899 5.95792 6.07707 5.04751C6.27922 4.59651 6.50151 4.169 6.74711 3.81837C6.94309 3.53859 7.35107 3.0105 8.01584 2.80596C8.8767 2.54108 9.65947 2.82395 10.188 3.12561C10.7288 3.43425 11.2246 3.88359 11.6578 4.34676C12.532 5.28134 13.4035 6.54847 14.1557 7.7627C14.9176 8.99256 15.5993 10.2376 16.0883 11.1699C16.1823 11.3489 16.2693 11.517 16.3488 11.6716C16.5264 11.6387 16.7219 11.6045 16.9342 11.5701C18.0566 11.3883 19.6549 11.2008 21.5921 11.1696C23.6215 11.1368 25.3111 11.4639 26.5019 11.8029C26.7314 11.8683 26.9429 11.9342 27.1352 11.9983ZM9.27424 5.50814C9.28896 5.48977 9.29658 5.48347 9.29658 5.48347C9.29658 5.48347 9.28931 5.49362 9.27424 5.50814ZM30.0692 24.2929C27.9096 22.7644 24.6825 21.0744 21.2807 21.26C17.91 21.4439 15.3165 23.2202 13.705 24.7309C13.5128 24.9111 13.4692 25.1041 13.4974 25.281C13.5279 25.4725 13.657 25.704 13.9426 25.8639C15.1091 26.517 16.5801 27.26 18.0942 27.823C19.6317 28.3946 21.0927 28.7343 22.2764 28.6893C23.4081 28.6463 24.7528 28.2524 26.1537 27.6449C27.5364 27.0453 28.8773 26.2807 29.9768 25.5863C30.2767 25.3969 30.3928 25.137 30.403 24.9189C30.4127 24.7096 30.3303 24.4778 30.0692 24.2929ZM21.1153 18.227C25.5484 17.9852 29.4772 20.1526 31.824 21.8136C34.1458 23.457 33.8792 26.7144 31.5987 28.1545C30.42 28.8989 28.9358 29.7493 27.3621 30.4317C25.8065 31.1062 24.0634 31.6611 22.3917 31.7246C20.6234 31.7918 18.7238 31.2977 17.0356 30.6701C15.324 30.0337 13.7043 29.2117 12.4587 28.5143C10.3144 27.3137 9.65091 24.368 11.6276 22.5149C13.509 20.7512 16.7493 18.4651 21.1153 18.227Z" fill="#2A76E9"/>
<path d="M25.5004 24.8452C25.5004 27.1648 23.8886 29.0452 21.9004 29.0452C19.9122 29.0452 18.3004 27.1648 18.3004 24.8452C18.3004 22.5256 19.9122 20.6452 21.9004 20.6452C23.8886 20.6452 25.5004 22.5256 25.5004 24.8452Z" fill="#2A76E9"/>
</svg>
