<svg width="92" height="109" viewBox="0 0 92 109" fill="none" xmlns="http://www.w3.org/2000/svg">
<path d="M34.6139 2.69846C34.6139 0.650969 32.4939 -0.673911 30.746 0.358733C12.3555 11.224 0 31.4025 0 54.5C0 77.5975 12.3555 97.776 30.746 108.641C32.4939 109.674 34.6139 108.349 34.6139 106.302V2.69846Z" fill="#FF5EBE"/>
<path d="M53.7426 2.69846C53.7426 0.650969 51.6226 -0.673911 49.8747 0.358733C31.4842 11.224 19.1287 31.4025 19.1287 54.5C19.1287 77.5975 31.4842 97.776 49.8747 108.641C51.6226 109.674 53.7426 108.349 53.7426 106.302V2.69846Z" fill="#FF5EBE"/>
<path d="M72.8713 2.69846C72.8713 0.650969 70.7513 -0.673911 69.0035 0.358733C50.6129 11.224 38.2574 31.4025 38.2574 54.5C38.2574 77.5975 50.6129 97.776 69.0035 108.641C70.7513 109.674 72.8713 108.349 72.8713 106.302V2.69846Z" fill="#FF5EBE"/>
<path d="M92 2.69846C92 0.650969 89.88 -0.673911 88.1322 0.358733C69.7416 11.224 57.3861 31.4025 57.3861 54.5C57.3861 77.5975 69.7416 97.776 88.1322 108.641C89.88 109.674 92 108.349 92 106.302V2.69846Z" fill="#FF5EBE"/>
</svg>
