<svg width="330" height="116" viewBox="0 0 330 116" fill="none" xmlns="http://www.w3.org/2000/svg">
<path d="M0.272 45V1.096H21.584C24.4 1.096 26.7253 1.65066 28.56 2.76C30.4373 3.86933 31.824 5.384 32.72 7.304C33.6587 9.18133 34.128 11.2933 34.128 13.64C34.128 16.1573 33.5733 18.4187 32.464 20.424C31.3547 22.3867 29.8827 23.944 28.048 25.096C26.2133 26.2053 24.1867 26.76 21.968 26.76H3.728V45H0.272ZM3.728 23.688H21.456C24.144 23.688 26.3413 22.8133 28.048 21.064C29.7547 19.272 30.608 16.84 30.608 13.768C30.608 11.7627 30.2667 10.056 29.584 8.648C28.944 7.19733 27.9413 6.088 26.576 5.32C25.2107 4.552 23.504 4.168 21.456 4.168H3.728V23.688ZM42.4595 45V1.096H65.4995C68.2302 1.096 70.4915 1.62933 72.2835 2.696C74.0755 3.76266 75.4195 5.192 76.3155 6.984C77.2115 8.776 77.6595 10.8027 77.6595 13.064C77.6595 16.264 76.9128 18.952 75.4195 21.128C73.9262 23.2613 72.0488 24.712 69.7875 25.48L79.1955 45H75.3555L66.2675 26.12H45.9155V45H42.4595ZM45.9155 23.048H64.9875C67.8462 23.048 70.0862 22.152 71.7075 20.36C73.3715 18.568 74.2035 16.1147 74.2035 13C74.2035 11.1653 73.8622 9.608 73.1795 8.328C72.4968 7.00533 71.4728 5.98133 70.1075 5.256C68.7422 4.53067 67.0355 4.168 64.9875 4.168H45.9155V23.048ZM107.283 45.768C102.76 45.768 98.8777 44.9147 95.635 43.208C92.435 41.5013 89.9603 38.9627 88.211 35.592C86.5043 32.2213 85.651 28.04 85.651 23.048C85.651 18.0133 86.5043 13.832 88.211 10.504C89.9603 7.13333 92.435 4.59466 95.635 2.888C98.8777 1.18133 102.76 0.327999 107.283 0.327999C111.848 0.327999 115.731 1.18133 118.931 2.888C122.174 4.59466 124.648 7.13333 126.355 10.504C128.104 13.832 128.979 18.0133 128.979 23.048C128.979 28.04 128.104 32.2213 126.355 35.592C124.648 38.9627 122.174 41.5013 118.931 43.208C115.731 44.9147 111.848 45.768 107.283 45.768ZM107.283 42.696C109.928 42.696 112.36 42.3547 114.579 41.672C116.798 40.9893 118.696 39.9013 120.275 38.408C121.896 36.872 123.134 34.9093 123.987 32.52C124.883 30.088 125.331 27.144 125.331 23.688V22.408C125.331 18.952 124.883 16.0293 123.987 13.64C123.134 11.208 121.896 9.24533 120.275 7.752C118.696 6.216 116.798 5.10667 114.579 4.424C112.36 3.74133 109.928 3.4 107.283 3.4C104.638 3.4 102.206 3.74133 99.987 4.424C97.811 5.10667 95.9123 6.216 94.291 7.752C92.7123 9.24533 91.475 11.208 90.579 13.64C89.7257 16.0293 89.299 18.952 89.299 22.408V23.688C89.299 27.144 89.7257 30.088 90.579 32.52C91.475 34.9093 92.7123 36.872 94.291 38.408C95.9123 39.9013 97.811 40.9893 99.987 41.672C102.206 42.3547 104.638 42.696 107.283 42.696ZM139.022 45V1.096H153.998C158.777 1.096 162.83 1.84266 166.158 3.336C169.486 4.82933 172.025 7.19733 173.774 10.44C175.523 13.64 176.398 17.8427 176.398 23.048C176.398 28.168 175.523 32.3493 173.774 35.592C172.025 38.8347 169.486 41.224 166.158 42.76C162.83 44.2533 158.777 45 153.998 45H139.022ZM142.478 41.928H153.742C156.601 41.928 159.182 41.6293 161.486 41.032C163.833 40.392 165.838 39.368 167.502 37.96C169.209 36.552 170.51 34.696 171.406 32.392C172.302 30.0453 172.75 27.1867 172.75 23.816V22.536C172.75 19.0373 172.302 16.1147 171.406 13.768C170.51 11.4213 169.23 9.544 167.566 8.136C165.902 6.728 163.897 5.72533 161.55 5.128C159.246 4.488 156.643 4.168 153.742 4.168H142.478V41.928ZM203.676 45.768C200.092 45.768 197.02 45.192 194.46 44.04C191.9 42.888 189.916 41.0107 188.508 38.408C187.142 35.7627 186.46 32.2853 186.46 27.976V1.096H189.98V29.64C189.98 33.992 191.174 37.256 193.564 39.432C195.996 41.5653 199.366 42.632 203.676 42.632C208.113 42.632 211.59 41.5653 214.108 39.432C216.625 37.256 217.884 33.992 217.884 29.64V1.096H221.276V27.976C221.276 32.2853 220.572 35.7627 219.164 38.408C217.756 41.0107 215.729 42.888 213.083 44.04C210.481 45.192 207.345 45.768 203.676 45.768ZM251.883 45.768C247.403 45.768 243.627 44.9147 240.555 43.208C237.525 41.5013 235.221 38.9627 233.643 35.592C232.107 32.2213 231.339 28.04 231.339 23.048C231.339 15.5387 233.152 9.88533 236.779 6.088C240.405 2.248 245.483 0.327999 252.011 0.327999C255.893 0.327999 259.264 0.925332 262.123 2.12C265.024 3.31467 267.264 5.10667 268.843 7.496C270.421 9.88533 271.211 12.8933 271.211 16.52H267.755C267.755 13.448 267.115 10.952 265.835 9.032C264.597 7.112 262.784 5.704 260.395 4.808C258.048 3.86933 255.211 3.4 251.883 3.4C248.597 3.4 245.675 4.04 243.115 5.32C240.555 6.6 238.549 8.648 237.099 11.464C235.691 14.28 234.987 18.0347 234.987 22.728V24.072C234.987 28.552 235.691 32.1573 237.099 34.888C238.549 37.6187 240.555 39.6027 243.115 40.84C245.675 42.0773 248.619 42.696 251.947 42.696C255.232 42.696 258.048 42.248 260.395 41.352C262.784 40.4133 264.619 38.984 265.899 37.064C267.179 35.144 267.819 32.648 267.819 29.576H271.211C271.211 33.288 270.379 36.3387 268.715 38.728C267.051 41.1173 264.768 42.888 261.867 44.04C258.965 45.192 255.637 45.768 251.883 45.768ZM290.524 45V4.168H274.268V1.096H310.428V4.168H293.98V45H290.524ZM0.272 115V71.096H15.248C20.0267 71.096 24.08 71.8427 27.408 73.336C30.736 74.8293 33.2747 77.1973 35.024 80.44C36.7733 83.64 37.648 87.8427 37.648 93.048C37.648 98.168 36.7733 102.349 35.024 105.592C33.2747 108.835 30.736 111.224 27.408 112.76C24.08 114.253 20.0267 115 15.248 115H0.272ZM3.728 111.928H14.992C17.8507 111.928 20.432 111.629 22.736 111.032C25.0827 110.392 27.088 109.368 28.752 107.96C30.4587 106.552 31.76 104.696 32.656 102.392C33.552 100.045 34 97.1867 34 93.816V92.536C34 89.0373 33.552 86.1147 32.656 83.768C31.76 81.4213 30.48 79.544 28.816 78.136C27.152 76.728 25.1467 75.7253 22.8 75.128C20.496 74.488 17.8933 74.168 14.992 74.168H3.728V111.928ZM47.7095 115V71.096H80.9895V74.168H51.1655V90.936H78.1735V94.008H51.1655V111.928H81.3735V115H47.7095ZM107.207 115.768C104.86 115.768 102.577 115.576 100.359 115.192C98.1825 114.808 96.2412 114.147 94.5345 113.208C92.8278 112.227 91.4625 110.925 90.4385 109.304C89.4572 107.64 88.9665 105.528 88.9665 102.968C88.9665 102.755 88.9665 102.584 88.9665 102.456C88.9665 102.285 88.9878 102.051 89.0305 101.752H92.5505C92.5078 101.965 92.4652 102.243 92.4225 102.584C92.4225 102.883 92.4225 103.16 92.4225 103.416C92.4225 105.507 93.0625 107.256 94.3425 108.664C95.6225 110.029 97.3292 111.053 99.4625 111.736C101.639 112.376 104.007 112.696 106.567 112.696C107.121 112.696 107.975 112.653 109.127 112.568C110.279 112.483 111.516 112.291 112.839 111.992C114.204 111.651 115.484 111.16 116.679 110.52C117.916 109.88 118.919 109.027 119.687 107.96C120.497 106.851 120.903 105.443 120.903 103.736C120.903 102.029 120.455 100.621 119.559 99.512C118.705 98.36 117.553 97.4213 116.103 96.696C114.652 95.9707 113.009 95.352 111.175 94.84C109.34 94.2853 107.441 93.7733 105.479 93.304C103.516 92.8347 101.617 92.3227 99.7825 91.768C97.9478 91.1707 96.3052 90.4453 94.8545 89.592C93.4038 88.7387 92.2305 87.6507 91.3345 86.328C90.4812 85.0053 90.0545 83.384 90.0545 81.464C90.0545 79.928 90.3532 78.4773 90.9505 77.112C91.5478 75.7467 92.5078 74.5733 93.8305 73.592C95.1532 72.568 96.9025 71.7787 99.0785 71.224C101.297 70.6267 104.007 70.328 107.207 70.328C109.425 70.328 111.473 70.5627 113.351 71.032C115.271 71.5013 116.956 72.2267 118.407 73.208C119.857 74.1467 120.988 75.3627 121.799 76.856C122.609 78.3493 123.015 80.1413 123.015 82.232V83H119.559V81.656C119.559 79.9493 119.025 78.4987 117.958 77.304C116.892 76.0667 115.463 75.1067 113.671 74.424C111.879 73.7413 109.873 73.4 107.655 73.4C104.327 73.4 101.617 73.7413 99.5265 74.424C97.4785 75.1067 95.9638 76.024 94.9825 77.176C94.0438 78.2853 93.5745 79.5227 93.5745 80.888C93.5745 82.5093 94.0012 83.8533 94.8545 84.92C95.7505 85.9867 96.9238 86.8613 98.3745 87.544C99.8678 88.2267 101.532 88.824 103.367 89.336C105.201 89.848 107.079 90.3387 108.999 90.808C110.961 91.2773 112.86 91.8107 114.695 92.408C116.529 93.0053 118.172 93.752 119.623 94.648C121.116 95.544 122.289 96.6747 123.143 98.04C124.039 99.4053 124.487 101.091 124.487 103.096C124.487 105.997 123.74 108.387 122.247 110.264C120.796 112.141 118.769 113.528 116.167 114.424C113.607 115.32 110.62 115.768 107.207 115.768ZM134.772 115V71.096H138.228V115H134.772ZM170.292 115.768C162.868 115.768 157.343 113.891 153.716 110.136C150.089 106.339 148.276 100.643 148.276 93.048C148.276 88.1413 149.087 84.0027 150.708 80.632C152.372 77.2613 154.847 74.7013 158.132 72.952C161.417 71.2027 165.535 70.328 170.484 70.328C173.599 70.328 176.351 70.6693 178.74 71.352C181.129 71.992 183.135 72.9733 184.756 74.296C186.42 75.576 187.657 77.1973 188.468 79.16C189.321 81.1227 189.748 83.4267 189.748 86.072H186.356C186.356 83.64 185.951 81.6133 185.14 79.992C184.372 78.3707 183.263 77.0693 181.812 76.088C180.404 75.1067 178.719 74.424 176.756 74.04C174.793 73.6133 172.66 73.4 170.356 73.4C167.583 73.4 165.065 73.7413 162.804 74.424C160.543 75.1067 158.601 76.216 156.98 77.752C155.359 79.2453 154.1 81.208 153.204 83.64C152.351 86.0293 151.924 88.952 151.924 92.408V93.752C151.924 98.36 152.649 102.051 154.1 104.824C155.593 107.597 157.684 109.603 160.372 110.84C163.06 112.077 166.217 112.696 169.844 112.696C174.025 112.696 177.311 112.141 179.7 111.032C182.089 109.923 183.775 108.195 184.756 105.848C185.78 103.459 186.292 100.429 186.292 96.76V95.544H169.076V92.472H189.812V115H186.868L186.292 108.664C185.311 110.371 183.945 111.757 182.196 112.824C180.447 113.848 178.527 114.595 176.436 115.064C174.388 115.533 172.34 115.768 170.292 115.768ZM201.835 115V71.096H205.355L229.611 103.544C229.867 103.843 230.187 104.269 230.571 104.824C230.955 105.379 231.36 105.955 231.787 106.552C232.213 107.149 232.597 107.683 232.939 108.152H233.194C233.194 107.384 233.194 106.616 233.194 105.848C233.194 105.08 233.194 104.312 233.194 103.544V71.096H236.651V115H233.899L209.067 81.656C208.768 81.272 208.256 80.5893 207.531 79.608C206.805 78.6267 206.144 77.7307 205.547 76.92H205.291C205.291 77.7307 205.291 78.52 205.291 79.288C205.291 80.056 205.291 80.8453 205.291 81.656V115H201.835ZM249.21 115V71.096H282.49V74.168H252.666V90.936H279.674V94.008H252.666V111.928H282.874V115H249.21ZM292.835 115V71.096H315.875C318.605 71.096 320.867 71.6293 322.659 72.696C324.451 73.7627 325.795 75.192 326.691 76.984C327.587 78.776 328.035 80.8027 328.035 83.064C328.035 86.264 327.288 88.952 325.795 91.128C324.301 93.2613 322.424 94.712 320.163 95.48L329.571 115H325.731L316.643 96.12H296.291V115H292.835ZM296.291 93.048H315.363C318.221 93.048 320.461 92.152 322.083 90.36C323.747 88.568 324.579 86.1147 324.579 83C324.579 81.1653 324.237 79.608 323.555 78.328C322.872 77.0053 321.848 75.9813 320.483 75.256C319.117 74.5307 317.411 74.168 315.363 74.168H296.291V93.048Z" fill="#1B1B1B"/>
</svg>
